<?xml version="1.0" encoding="UTF-8" standalone="no"?>
<svg xmlns="http://www.w3.org/2000/svg" viewBox="0 0 180 240" height="120" width="120">
  <g transform="matrix(1.3333333,0,0,-1.3333333,0,333.33333)">
    <g>
      <g>
        <g transform="translate(71.0039,208.5)">
          <path style="fill:#01b69b" d="M 0,0 C 3.394,4.696 9.145,11.271 16.147,13.758 15.089,18.143 6.223,25.937 0.618,24.573 -4.04,19.825 -9.544,9.738 -10.987,0.153 c -27.211,-1.488 -52.676,-16.531 -52.676,-31.854 0,-6.216 3.767,-11.642 11.195,-16.126 3.788,-2.288 8.431,-4.25 13.803,-5.832 9.308,-2.752 20.69,-4.267 32.054,-4.267 11,0 21.559,1.329 30.649,3.851 v 0.141 c 0,4.413 -0.716,7.569 -2.299,10.008 -8.151,-2.336 -17.916,-3.567 -28.35,-3.567 -11.031,0 -21.31,1.374 -29.726,3.973 -5.932,1.829 -10.841,4.241 -13.823,6.793 -2.035,1.727 -3.07,3.419 -3.07,5.026 0,6.395 18.092,21.545 46.619,21.545 28.521,0 46.611,-15.15 46.611,-21.545 0,-1.24 -0.615,-2.533 -1.832,-3.857 1.743,-3.121 2.966,-6.648 3.652,-10.532 7.042,5.152 8.613,10.577 8.613,14.389 C 50.433,-16.799 26.35,-2.163 0,0" />
        </g>
        <g transform="translate(104.9521,172.2129)">
          <path style="fill:#01b69b" d="m 0,0 c -9.52,14.995 -32.07,14.995 -40.56,14.995 -8.194,0 -29.491,0.001 -39.521,-13.478 2.396,-1.638 5.817,-3.233 9.762,-4.539 5.111,5.235 14.395,7.584 29.759,7.584 16.333,0 25.793,-2.657 30.675,-8.616 2.711,-3.289 3.975,-7.609 3.975,-13.592 0,-0.576 -0.017,-1.161 -0.041,-1.745 -0.865,-21.181 -17.333,-48.055 -34.609,-48.055 -8.162,0 -16.853,6.059 -23.846,16.626 -6.03,9.113 -9.97,20.224 -10.689,30.021 -3.896,1.219 -7.426,2.641 -10.542,4.247 -0.009,-0.363 -0.012,-0.728 -0.012,-1.094 0,-12.5 4.688,-27.052 12.541,-38.928 9.095,-13.744 20.654,-21.314 32.548,-21.314 11.889,0 23.446,7.57 32.541,21.314 7.853,11.876 12.541,26.428 12.541,38.928 0,1.44 -0.064,2.861 -0.192,4.222 C 3.83,-8.253 2.373,-3.734 0,0" />
        </g>
      </g>
    </g>
  </g>
</svg>